<svg width="188" height="188" viewBox="0 0 188 188" stroke="#030112" fill="#E9DCC9" stroke-linecap="round" stroke-width="2" xmlns="http://www.w3.org/2000/svg">
<!--   <style>
        @media (prefers-color-scheme: dark) {
            rect { fill: #030112; }
	    circle { stroke: #E9DCC990; fill: #030112;}
	    path {stroke:#030112;}
            .opposite { stroke: #E9DCC990;}
        }
    </style>
-->
	
<!-- Background -->

	<rect x="1" y="1" width="186" height="186" rx="25" fill="#E9DCC9" stroke="none" />

<!-- Grapes -->

	<circle cx="80" cy="140" r="20"/>

	<circle cx="75" cy="110" r="20"/>
	<circle cx="105" cy="120" r="20"/>

	<circle cx="65" cy="85" r="20"/>
	<circle cx="120" cy="95" r="20"/>
	<circle cx="95" cy="90" r="20"/>
	<circle cx="55" cy="60" r="20"/>

	<circle cx="65" cy="52" r="20"/>
	<circle cx="90" cy="55" r="20"/>
	<circle cx="120" cy="60" r="20"/>
	<circle cx="105" cy="60" r="20"/>
	
	<path fill="none" class="opposite" stroke-width="14" d="M 95 60 Q 100 30 130 20 "/>
	<path fill="none" stroke="#E9DCC9" stroke-width="10" d="M 95 60 Q 100 30 130 20 "/>

	<circle cx="78" cy="58" r="20"/>	

	<circle cx="53" cy="60" r="20"/>
	<circle cx="78" cy="70" r="20"/>
	<circle cx="135" cy="70" r="20"/>
	<circle cx="110" cy="70" r="20"/>
  


</svg>
