<svg width="562" height="239" viewBox="0 0 562 239" stroke="#030112" stroke-width="2" fill="none" stroke-linecap="round" xmlns="http://www.w3.org/2000/svg">

<!-- G -->

  <circle cx="55" cy="55" r="50" pathLength="100" stroke-dasharray="90 100"/>
  <line x1="65" y1="55" x2="105" y2="55"/>


<!-- E -->

  <path d="
	M 180 5
	h -50
	q -10 0 -10 10

	v 40
	h 18
	"/>
	
 <path d="
	M 138 55	
	h -18
	v 40

	q 0 10 10 10
	h 55
	"/>
  

<!-- O -->

  <circle cx="235" cy="55" r="50"/>


<!-- R -->

  <path d="
	M 300 105
	v -90
	q 0 -10 10 -10
	h 25
	c 40 0 40 60 0 60
	h -35
	h 34
	l 28 40
"/>

<!-- G -->

  <circle cx="427" cy="55" r="50" pathLength="100" stroke-dasharray="90 100"/>
  <line x1="437" y1="55" x2="477" y2="55"/>


<!-- E -->

  <path d="
	M 552 5
	h -50
	q -10 0 -10 10
	
	v 40
	h 18
	"/>

  <path d="
	M 510 55
	h -18
	v 40

	q 0 10 10 10
	h 55
	"/>



<!-- L -->

  <path d="
	M 40 134
	v 90
	q 0 10 10 10
	h 60
	"/>


<!-- E -->

  <path d="
	M 185 134
	h -50
	q -10 0 -10 10
	
	v 40
	h 18
	"/>

  <path d="
	M 143 184
	h -18
	v 40

	q 0 10 10 10
	h 55
	"/>



<!-- F1 -->

  <path d="
	M 270 134
	h -55
	q -10 0 -10 10
		
	v 40
	h 18
	"/>

  <path d="
	M 223 184
	h -18
	v 50
	"/>


<!-- F2 -->

  <path d="
	M 350 134
	h -55
	q -10 0 -10 10
	
	v 40
	h 18
	"/>

  <path d="
	M 303 184
	h -18
	v 50

	"/>


<!-- U -->

  <path d="
	M 365 134
	v 59
	c 0 55 80 55 80 0
	v -59
	"/>


<!-- E -->

  <path d="
	M 522 134
	h -50
	q -10 0 -10 10

	v 40
	h 18
	"/>

  <path d="
	M 480 184
	h -18
	v 40

	q 0 10 10 10
	h 55
	"/>

</svg>
