<svg width="562" height="250" viewBox="0 0 562 250" stroke="#030112" stroke-width="2" fill="none" stroke-linecap="round" xmlns="http://www.w3.org/2000/svg">
<!--   <style>
        @media (prefers-color-scheme: dark) {
            circle { stroke: #E9DCC990; }
	    line { stroke: #E9DCC990; } 
        }
    </style>
-->
	
<!-- G -->

  <circle cx="55" cy="55" r="50" pathLength="100" stroke-dasharray="90 100"/>
  <line x1="65" y1="55" x2="105" y2="55"/>


<!-- E -->

  <circle cx="130" cy="15" r="10" pathLength="100" stroke-dasharray="25 100" transform="rotate(180 130 15)"/>
  <circle cx="130" cy="95" r="10" pathLength="100" stroke-dasharray="25 100" transform="rotate(90 130 95)"/>
  <line x1="120" y1="15" x2="120" y2="95" />
  <line x1="121" y1="55" x2="140" y2="55"/>
  <line x1="130" y1="5" x2="180" y2="5"/>
  <line x1="130" y1="105" x2="185" y2="105"/>
  

<!-- O -->

  <circle cx="235" cy="55" r="50"/>


<!-- R -->

<line x1="310" y1="5" x2="335" y2="5" />
 <line x1="300" y1="15" x2="300" y2="105"/>
  <circle cx="310" cy="15" r="10" pathLength="100" stroke-dasharray="25 100" transform="rotate(-180 310 15)"/>
  <circle cx="335" cy="35" r="30" pathLength="100" stroke-dasharray="50 100" transform="rotate(-90 335 35)"/>
  <line x1="300" y1="65" x2="335" y2="65"/>
  <line x1="335" y1="66" x2="365" y2="105"/>


<!-- G -->

  <circle cx="427" cy="55" r="50" pathLength="100" stroke-dasharray="90 100"/>
  <line x1="437" y1="55" x2="477" y2="55"/>


<!-- E -->

  <circle cx="502" cy="15" r="10" pathLength="100" stroke-dasharray="25 100" transform="rotate(180 502 15)"/>
  <circle cx="502" cy="95" r="10" pathLength="100" stroke-dasharray="25 100" transform="rotate(90 502 95)"/>
  <line x1="492" y1="15" x2="492" y2="95" />
  <line x1="493" y1="55" x2="512" y2="55"/>
  <line x1="502" y1="5" x2="552" y2="5"/>
  <line x1="502" y1="105" x2="557" y2="105"/>









<!-- L -->

  <line x1="40" y1="134" x2="40" y2="224"/>
  <circle cx="50" cy="224" r="10" pathLength="100" stroke-dasharray="25 100" transform="rotate(90 50 224)"/>
  <line x1="50" y1="234" x2="110" y2="234"/>


<!-- E -->

  <circle cx="135" cy="144" r="10" pathLength="100" stroke-dasharray="25 100" transform="rotate(180 135 144)"/>
  <circle cx="135" cy="224" r="10" pathLength="100" stroke-dasharray="25 100" transform="rotate(90 135 224)"/>
  <line x1="125" y1="144" x2="125" y2="224" />
  <line x1="126" y1="184" x2="145" y2="184"/>
  <line x1="135" y1="134" x2="185" y2="134"/>
  <line x1="135" y1="234" x2="190" y2="234"/>


<!-- F1 -->

  <line x1="215" y1="134" x2="270" y2="134"/>
  <line x1="205" y1="144" x2="205" y2="234"/>
  <circle cx="215" cy="144" r="10" pathLength ="100" stroke-dasharray="25 100" transform="rotate(-180 215 144)"/>
  <line x1="206" y1="184" x2="225" y2="184"/>


<!-- F2 -->

  <line x1="295" y1="134" x2="350" y2="134"/>
  <line x1="285" y1="144" x2="285" y2="234"/>
  <circle cx="295" cy="144" r="10" pathLength="100" stroke-dasharray="25 100" transform="rotate(-180 295 144)"/>
  <line x1="286" y1="184" x2="305" y2="184"/>


<!-- U -->

  <line x1="365" y1="134" x2="365" y2="193"/>
  <circle cx="405" cy="194" r="40" pathLength="100" stroke-dasharray="50 100"/>
  <line x1="445" y1="134" x2="445" y2="193"/>


<!-- E -->

  <circle cx="472" cy="144" r="10" pathLength="100" stroke-dasharray="25 100" transform="rotate(180 472 144)"/>
  <circle cx="472" cy="224" r="10" pathLength="100" stroke-dasharray="25 100" transform="rotate(90 472 224)"/>
  <line x1="462" y1="144" x2="462" y2="224" />
  <line x1="463" y1="184" x2="482" y2="184"/>
  <line x1="472" y1="134" x2="522" y2="134"/>
  <line x1="472" y1="234" x2="527" y2="234"/>

</svg>

