<svg width="562" height="250" viewBox="0 0 562 250" stroke="#030112" stroke-width="2" fill="none" stroke-linecap="round" xmlns="http://www.w3.org/2000/svg">
<!--   <style>
        @media (prefers-color-scheme: dark) {
            circle { stroke: #E9DCC990; }
	    line { stroke: #E9DCC990; } 
        }
    </style>
-->
	
<!-- G -->

  <circle cx="55" cy="55" r="50" pathLength="100" stroke-dasharray="90 100"/>
  <line x1="65" y1="55" x2="105" y2="55"/>


<!-- E -->

  <path d="
	M 180 5
	h -50
	q -10 0 -10 10
	v 80
	q 0 10 10 10
	h 55
	"/>

  <line x1="121" y1="55" x2="140" y2="55"/>
  

<!-- O -->

  <circle cx="235" cy="55" r="50"/>


<!-- R -->

  <line x1="310" y1="5" x2="335" y2="5" />
  <line x1="300" y1="15" x2="300" y2="105"/>
  <circle cx="310" cy="15" r="10" pathLength="100" stroke-dasharray="25 100" transform="rotate(-180 310 15)"/>
  <circle cx="335" cy="35" r="30" pathLength="100" stroke-dasharray="50 100" transform="rotate(-90 335 35)"/>
  <line x1="300" y1="65" x2="335" y2="65"/>
  <line x1="335" y1="66" x2="365" y2="105"/>


<!-- G -->

  <circle cx="427" cy="55" r="50" pathLength="100" stroke-dasharray="90 100"/>
  <line x1="437" y1="55" x2="477" y2="55"/>


<!-- E -->

  <path d="
	M 552 5
	h -50
	q -10 0 -10 10
	v 80
	q 0 10 10 10
	h 55
	"/>

  <line x1="493" y1="55" x2="512" y2="55"/>
 




<!-- L -->

  <path d="
	M 40 134
	v 90
	q 0 10 10 10
	h 60
	"/>


<!-- E -->

  <path d="
	M 185 134
	h -50
	q -10 0 -10 10
	v 80
	q 0 10 10 10
	h 55
	"/>

  <line x1="126" y1="184" x2="145" y2="184"/>



<!-- F1 -->

  <path d="
	M 270 134
	h -55
	q -10 0 -10 10
	v 90
	"/>
  <line x1="206" y1="184" x2="225" y2="184"/>


<!-- F2 -->

  <path d="
	M 350 134
	h -55
	q -10 0 -10 10
	v 90
	"/>
  <line x1="286" y1="184" x2="305" y2="184"/>


<!-- U -->

  <path d="
	M 365 134
	v 59
	c 0 55 80 55 80 0
	v -59
	"/>


<!-- E -->

  <path d="
	M 522 134
	h -50
	q -10 0 -10 10
	v 80
	q 0 10 10 10
	h 55
	"/>

  <line x1="463" y1="184" x2="482" y2="184"/>


</svg>

