<svg width="650" height="110" viewBox="0 0 650 110" stroke="#030112" stroke-width="5" fill="none" stroke-linecap="round" xmlns="http://www.w3.org/2000/svg">
	
<!-- 8 -->

  <line x1="5" y1="15" x2="5" y2="45"/>
  <line x1="5" y1="65" x2="5" y2="95"/>

  <line x1="50" y1="15" x2="50" y2="45"/>
  <line x1="50" y1="65" x2="50" y2="95"/>

  <line x1="15" y1="5" x2="40" y2="5"/>
  <line x1="15" y1="55" x2="40" y2="55"/>
  <line x1="15" y1="105" x2="40" y2="105"/>

  <circle cx="15" cy="15" r="10" pathLength="100" stroke-dasharray="25 100" transform="rotate(180 15 15)"/>
  <circle cx="40" cy="15" r="10" pathLength="100" stroke-dasharray="25 100" transform="rotate(270 40 15)"/>

  <circle cx="15" cy="45" r="10" pathLength="100" stroke-dasharray="25 100" transform="rotate(90 15 45)"/>
  <circle cx="15" cy="65" r="10" pathLength="100" stroke-dasharray="25 100" transform="rotate(180 15 65)"/>
  <circle cx="40" cy="65" r="10" pathLength="100" stroke-dasharray="25 100" transform="rotate(270 40 65)"/>
  <circle cx="40" cy="45" r="10" pathLength="100" stroke-dasharray="25 100" transform="rotate(0 40 45)"/>

  <circle cx="15" cy="95" r="10" pathLength="100" stroke-dasharray="25 100" transform="rotate(90 15 95)"/>
  <circle cx="40" cy="95" r="10" pathLength="100" stroke-dasharray="25 100" transform="rotate(0 40 95)"/>

<!-- 0 -->

  <line x1="70" y1="15" x2="70" y2="95"/>
  <line x1="115" y1="15" x2="115" y2="95"/>

  <line x1="80" y1="5" x2="105" y2="5"/>
  <line x1="80" y1="105" x2="105" y2="105"/>

  <circle cx="80" cy="15" r="10" pathLength="100" stroke-dasharray="25 100" transform="rotate(180 80 15)"/>
  <circle cx="105" cy="15" r="10" pathLength="100" stroke-dasharray="25 100" transform="rotate(270 105 15)"/>


  <circle cx="80" cy="95" r="10" pathLength="100" stroke-dasharray="25 100" transform="rotate(90 80 95)"/>
  <circle cx="105" cy="95" r="10" pathLength="100" stroke-dasharray="25 100" transform="rotate(0 105 95)"/>


<!-- 5 -->  <line x1="135" y1="15" x2="135" y2="45"/>  <line x1="180" y1="65" x2="180" y2="95"/> <line x1="145" y1="5" x2="175" y2="5"/> <line x1="145" y1="55" x2="170" y2="55"/> <line x1="135" y1="105" x2="170" y2="105"/>
 <circle cx="145" cy="15" r="10" pathLength="100" stroke-dasharray="25 100" transform="rotate(180 145 15)"/> <circle cx="145" cy="45" r="10" pathLength="100" stroke-dasharray="25 100" transform="rotate(90 145 45)"/> <circle cx="170" cy="65" r="10" pathLength="100" stroke-dasharray="25 100" transform="rotate(270 170 65)"/> <circle cx="170" cy="95" r="10" pathLength="100" stroke-dasharray="25 100" transform="rotate(0 170 100)"/>


<!-- DOT -->

<line x1="200" y1="105" x2="200" y2="105" stroke-width="5"/>



<!-- 2 -->  
	<line x1="220" y1="65" x2="220" y2="95"/>
	<line x1="265" y1="15" x2="265" y2="45"/>  
	<line x1="225" y1="5" x2="255" y2="5"/>
	<line x1="230" y1="55" x2="255" y2="55"/>
	<line x1="230" y1="105" x2="265" y2="105"/>  
	<circle cx="255" cy="15" r="10" pathLength="100" stroke-dasharray="25 100" transform="rotate(270 255 15)"/>  
	<circle cx="230" cy="65" r="10" pathLength="100" stroke-dasharray="25 100" transform="rotate(180 230 65)"/>  
	<circle cx="255" cy="45" r="10" pathLength="100" stroke-dasharray="25 100" transform="rotate(0 255 45)"/> 
	<circle cx="230" cy="95" r="10" pathLength="100" stroke-dasharray="25 100" transform="rotate(90 230 95)"/>   
	
<!-- 5 -->  <line x1="285" y1="15" x2="285" y2="45"/>   <line x1="330" y1="65" x2="330" y2="95"/> <line x1="295" y1="5" x2="325" y2="5"/> <line x1="295" y1="55" x2="320" y2="55"/> <line x1="285" y1="105" x2="320" y2="105"/> <circle cx="295" cy="15" r="10" pathLength="100" stroke-dasharray="25 100" transform="rotate(180 295 15)"/>  <circle cx="295" cy="45" r="10" pathLength="100" stroke-dasharray="25 100" transform="rotate(90 295 45)"/>  <circle cx="320" cy="65" r="10" pathLength="100" stroke-dasharray="25 100" transform="rotate(270 320 65)"/>   <circle cx="320" cy="95" r="10" pathLength="100" stroke-dasharray="25 100" transform="rotate(0 320 95)"/>

<!-- 9 -->  <line x1="350" y1="15" x2="350" y2="45"/>  <line x1="395" y1="15" x2="395" y2="95"/>  <line x1="360" y1="5" x2="385" y2="5"/> <line x1="360" y1="55" x2="385" y2="55"/> <line x1="350" y1="105" x2="385" y2="105"/>

<circle cx="385" cy="45" r="10" pathLength="100" stroke-dasharray="25 100" transform="rotate(0 385 45)"/> <circle cx="360" cy="15" r="10" pathLength="100" stroke-dasharray="25 100" transform="rotate(180 360 15)"/> <circle cx="385" cy="15" r="10" pathLength="100" stroke-dasharray="25 100" transform="rotate(270 385 15)"/> <circle cx="360" cy="45" r="10" pathLength="100" stroke-dasharray="25 100" transform="rotate(90 360 45)"/> <circle cx="385" cy="95" r="10" pathLength="100" stroke-dasharray="25 100" transform="rotate(0 385 95)"/> 

<!-- DOT -->
<line x1="415" y1="105" x2="415" y2="105" stroke-width="5"/>


<!-- 5 -->  <line x1="435" y1="15" x2="435" y2="45"/>  <line x1="480" y1="65" x2="480" y2="95"/> <line x1="445" y1="5" x2="475" y2="5"/> <line x1="445" y1="55" x2="470" y2="55"/> <line x1="435" y1="105" x2="470" y2="105"/> <circle cx="445" cy="15" r="10" pathLength="100" stroke-dasharray="25 100" transform="rotate(180 445 15)"/>  <circle cx="445" cy="45" r="10" pathLength="100" stroke-dasharray="25 100" transform="rotate(90 445 45)"/>  <circle cx="470" cy="65" r="10" pathLength="100" stroke-dasharray="25 100" transform="rotate(270 470 65)"/>   <circle cx="470" cy="95" r="10" pathLength="100" stroke-dasharray="25 100" transform="rotate(0 475 100)"/>

<!-- 9 -->  <line x1="500" y1="15" x2="500" y2="45"/>  <line x1="545" y1="15" x2="545" y2="95"/>  <line x1="510" y1="5" x2="535" y2="5"/> <line x1="510" y1="55" x2="535" y2="55"/> <line x1="500" y1="105" x2="535" y2="105"/>

<circle cx="535" cy="45" r="10" pathLength="100" stroke-dasharray="25 100" transform="rotate(0 535 45)"/> <circle cx="510" cy="15" r="10" pathLength="100" stroke-dasharray="25 100" transform="rotate(180 510 15)"/> <circle cx="540" cy="10" r="10" pathLength="100" stroke-dasharray="25 100" transform="rotate(270 540 15)"/> <circle cx="515" cy="50" r="10" pathLength="100" stroke-dasharray="25 100" transform="rotate(90 515 45)"/> <circle cx="535" cy="95" r="10" pathLength="100" stroke-dasharray="25 100" transform="rotate(0 535 95)"/> 

<!-- 1 -->   <line x1="575" y1="5" x2="575" y2="105"/>  

<!-- 7 -->  <line x1="645" y1="15" x2="645" y2="105"/>  <line x1="600" y1="5" x2="635" y2="5"/>  <circle cx="635" cy="15" r="10" pathLength="100" stroke-dasharray="25 100" transform="rotate(270 635 15)"/> 


</svg>
