<svg width="540" height="110" viewBox="0 0 540 110" stroke="#030112" stroke-width="4" fill="none" stroke-linecap="round" xmlns="http://www.w3.org/2000/svg">
	
<!-- 8 -->

  <line x1="5" y1="15" x2="5" y2="45"/>
  <line x1="5" y1="65" x2="5" y2="95"/>

  <line x1="50" y1="15" x2="50" y2="45"/>
  <line x1="50" y1="65" x2="50" y2="95"/>

  <line x1="15" y1="5" x2="40" y2="5"/>
  <line x1="15" y1="55" x2="40" y2="55"/>
  <line x1="15" y1="105" x2="40" y2="105"/>

  <circle cx="15" cy="15" r="10" pathLength="100" stroke-dasharray="25 100" transform="rotate(180 15 15)"/>
  <circle cx="40" cy="15" r="10" pathLength="100" stroke-dasharray="25 100" transform="rotate(270 40 15)"/>

  <circle cx="15" cy="45" r="10" pathLength="100" stroke-dasharray="25 100" transform="rotate(90 15 45)"/>
  <circle cx="15" cy="65" r="10" pathLength="100" stroke-dasharray="25 100" transform="rotate(180 15 65)"/>
  <circle cx="40" cy="65" r="10" pathLength="100" stroke-dasharray="25 100" transform="rotate(270 40 65)"/>
  <circle cx="40" cy="45" r="10" pathLength="100" stroke-dasharray="25 100" transform="rotate(0 40 45)"/>

  <circle cx="15" cy="95" r="10" pathLength="100" stroke-dasharray="25 100" transform="rotate(90 15 95)"/>
  <circle cx="40" cy="95" r="10" pathLength="100" stroke-dasharray="25 100" transform="rotate(0 40 95)"/>

<!-- 0 -->

  <line x1="60" y1="15" x2="60" y2="95"/>
  <line x1="105" y1="15" x2="105" y2="95"/>

  <line x1="70" y1="5" x2="95" y2="5"/>
  <line x1="70" y1="105" x2="95" y2="105"/>

  <circle cx="70" cy="15" r="10" pathLength="100" stroke-dasharray="25 100" transform="rotate(180 70 15)"/>
  <circle cx="95" cy="15" r="10" pathLength="100" stroke-dasharray="25 100" transform="rotate(270 95 15)"/>


  <circle cx="70" cy="95" r="10" pathLength="100" stroke-dasharray="25 100" transform="rotate(90 70 95)"/>
  <circle cx="95" cy="95" r="10" pathLength="100" stroke-dasharray="25 100" transform="rotate(0 95 95)"/>


<!-- 5 -->  <line x1="115" y1="15" x2="115" y2="45"/>  <line x1="160" y1="65" x2="160" y2="95"/> <line x1="125" y1="5" x2="155" y2="5"/> <line x1="125" y1="55" x2="150" y2="55"/> <line x1="115" y1="105" x2="150" y2="105"/>
 <circle cx="125" cy="15" r="10" pathLength="100" stroke-dasharray="25 100" transform="rotate(180 125 15)"/> <circle cx="125" cy="45" r="10" pathLength="100" stroke-dasharray="25 100" transform="rotate(90 125 45)"/> <circle cx="150" cy="65" r="10" pathLength="100" stroke-dasharray="25 100" transform="rotate(270 150 65)"/> <circle cx="150" cy="95" r="10" pathLength="100" stroke-dasharray="25 100" transform="rotate(0 155 100)"/>


<!-- DOT -->

<line x1="170" y1="105" x2="170" y2="105" stroke-width="5"/>



<!-- 2 -->  
	<line x1="180" y1="65" x2="180" y2="95"/>
	<line x1="225" y1="15" x2="225" y2="45"/>  
	<line x1="185" y1="5" x2="215" y2="5"/>
	<line x1="190" y1="55" x2="215" y2="55"/>
	<line x1="190" y1="105" x2="225" y2="105"/>  
	<circle cx="215" cy="15" r="10" pathLength="100" stroke-dasharray="25 100" transform="rotate(270 215 15)"/>  
	<circle cx="190" cy="65" r="10" pathLength="100" stroke-dasharray="25 100" transform="rotate(180 190 65)"/>  
	<circle cx="215" cy="45" r="10" pathLength="100" stroke-dasharray="25 100" transform="rotate(0 215 45)"/> 
	<circle cx="190" cy="95" r="10" pathLength="100" stroke-dasharray="25 100" transform="rotate(90 190 95)"/>   
	
<!-- 5 -->  <line x1="235" y1="15" x2="235" y2="45"/>   <line x1="280" y1="65" x2="280" y2="95"/> <line x1="245" y1="5" x2="275" y2="5"/> <line x1="245" y1="55" x2="270" y2="55"/> <line x1="235" y1="105" x2="270" y2="105"/> <circle cx="245" cy="15" r="10" pathLength="100" stroke-dasharray="25 100" transform="rotate(180 245 15)"/>  <circle cx="245" cy="45" r="10" pathLength="100" stroke-dasharray="25 100" transform="rotate(90 245 45)"/>  <circle cx="270" cy="65" r="10" pathLength="100" stroke-dasharray="25 100" transform="rotate(270 270 65)"/>   <circle cx="270" cy="95" r="10" pathLength="100" stroke-dasharray="25 100" transform="rotate(0 270 95)"/>

<!-- 9 -->  <line x1="290" y1="15" x2="290" y2="45"/>  <line x1="335" y1="15" x2="335" y2="95"/>  <line x1="300" y1="5" x2="325" y2="5"/> <line x1="300" y1="55" x2="325" y2="55"/> <line x1="290" y1="105" x2="325" y2="105"/>

<circle cx="325" cy="45" r="10" pathLength="100" stroke-dasharray="25 100" transform="rotate(0 325 45)"/> <circle cx="300" cy="15" r="10" pathLength="100" stroke-dasharray="25 100" transform="rotate(180 300 15)"/> <circle cx="325" cy="15" r="10" pathLength="100" stroke-dasharray="25 100" transform="rotate(270 325 15)"/> <circle cx="300" cy="45" r="10" pathLength="100" stroke-dasharray="25 100" transform="rotate(90 300 45)"/> <circle cx="325" cy="95" r="10" pathLength="100" stroke-dasharray="25 100" transform="rotate(0 325 95)"/> 

<!-- DOT -->
<line x1="345" y1="105" x2="345" y2="105" stroke-width="5"/>


<!-- 5 -->  <line x1="355" y1="15" x2="355" y2="45"/>  <line x1="400" y1="65" x2="400" y2="95"/> <line x1="365" y1="5" x2="395" y2="5"/> <line x1="365" y1="55" x2="390" y2="55"/> <line x1="355" y1="105" x2="390" y2="105"/> <circle cx="365" cy="15" r="10" pathLength="100" stroke-dasharray="25 100" transform="rotate(180 365 15)"/>  <circle cx="365" cy="45" r="10" pathLength="100" stroke-dasharray="25 100" transform="rotate(90 365 45)"/>  <circle cx="390" cy="65" r="10" pathLength="100" stroke-dasharray="25 100" transform="rotate(270 390 65)"/>   <circle cx="390" cy="95" r="10" pathLength="100" stroke-dasharray="25 100" transform="rotate(0 395 100)"/>

<!-- 9 -->  <line x1="410" y1="15" x2="410" y2="45"/>  <line x1="455" y1="15" x2="455" y2="95"/>  <line x1="420" y1="5" x2="445" y2="5"/> <line x1="420" y1="55" x2="445" y2="55"/> <line x1="410" y1="105" x2="445" y2="105"/>

<circle cx="445" cy="45" r="10" pathLength="100" stroke-dasharray="25 100" transform="rotate(0 445 45)"/> <circle cx="420" cy="15" r="10" pathLength="100" stroke-dasharray="25 100" transform="rotate(180 420 15)"/> <circle cx="450" cy="10" r="10" pathLength="100" stroke-dasharray="25 100" transform="rotate(270 450 15)"/> <circle cx="425" cy="50" r="10" pathLength="100" stroke-dasharray="25 100" transform="rotate(90 425 45)"/> <circle cx="445" cy="95" r="10" pathLength="100" stroke-dasharray="25 100" transform="rotate(0 445 95)"/> 

<!-- 1 -->   <line x1="475" y1="5" x2="475" y2="105"/>  

<!-- 7 -->  <line x1="535" y1="15" x2="535" y2="105"/>  <line x1="490" y1="5" x2="525" y2="5"/>  <circle cx="525" cy="15" r="10" pathLength="100" stroke-dasharray="25 100" transform="rotate(270 525 15)"/> 


</svg>

