<svg width="750" height="110" viewBox="0 0 750 110" stroke="#030112" stroke-width="4" fill="none" stroke-linecap="round" xmlns="http://www.w3.org/2000/svg">


<!-- 8 -->

	<path d="
		M 25 5
		q -20 0 -20 20 
		v 10
		q 0 20 20 20
		h 10
		q 20 0 20 -20 
		v -10 
		q 0 -20 -20 -20 
		Z
	"/>

	<path d="
		M 25 55
		q -20 0 -20 20 
		v 10
		q 0 20 20 20
		h 10
		q 20 0 20 -20 
		v -10 
		q 0 -20 -20 -20 
		Z
	"/>

<!-- 0 -->
	<path d="
		M 100 5
		q -20 0 -20 20 
		v 60 
		q 0 20 20 20
		h 10 
		q 20 0 20 -20 
		v -60 
		q 0 -20 -20 -20 
		Z
	"/>


<!-- 5 -->

	<path d="
		M 195 5 
		h -20
		q -20 0 -20 20
		v 10
		q 0 20 20 20
		h 10
		q 20 0 20 20
		v 10
		q 0 20 -20 20
		h -25
	"/>

<!-- DOT -->

  <path d="M 230 105 Z" stroke-width="5"/>



<!-- 2 -->   
	<path d="
		M 265 5 
		h 20
		q 20 0 20 20
		v 10
		q 0 20 -20 20
		h -10
		q -20 0 -20 20
		v 10
		q 0 20 20 20
		h 25
	"/> 
	
<!-- 5 -->  	<path d="
		M 370 5 
		h -20
		q -20 0 -20 20
		v 10
		q 0 20 20 20
		h 10
		q 20 0 20 20
		v 10
		q 0 20 -20 20
		h -25
	"/>

<!-- 9 -->

	<path d="
		M 425 5
		q -20 0 -20 20 
		v 10
		q 0 20 20 20
		h 10
		q 20 0 20 -20 
		v -10 
		q 0 -20 -20 -20 
		Z
	"/> 	
	<path d="
		M 455 30
		v 55
		q 0 20 -20 20
		h -25
	"/>

<!-- DOT -->

<path d="M 480 105 Z" stroke-width="5"/>


<!-- 5 -->  	<path d="
		M 545 5 
		h -20
		q -20 0 -20 20
		v 10
		q 0 20 20 20
		h 10
		q 20 0 20 20
		v 10
		q 0 20 -20 20
		h -25
	"/>

<!-- 9 -->

	<path d="
		M 600 5
		q -20 0 -20 20 
		v 10
		q 0 20 20 20
		h 10
		q 20 0 20 -20 
		v -10 
		q 0 -20 -20 -20 
		Z
	"/> 	
	<path d="
		M 630 30
		v 55
		q 0 20 -20 20
		h -25
	"/>

<!-- 1 -->  	<path d="
		M 670 5
		v 100
	"/> 

<!-- 7 -->

	<path d="
		M 700 5
		h 25
		q 20 0 20 20
		v 80
	"/>


</svg>
