<svg width="540" height="110" viewBox="0 0 540 110" stroke="#030112" stroke-width="4" fill="none" stroke-linecap="round" xmlns="http://www.w3.org/2000/svg">
	
<!-- 8 -->

  <line x1="5" y1="10" x2="5" y2="50"/>
  <line x1="5" y1="60" x2="5" y2="100"/>

  <line x1="50" y1="10" x2="50" y2="50"/>
  <line x1="50" y1="60" x2="50" y2="100"/>

  <line x1="10" y1="5" x2="45" y2="5"/>
  <line x1="10" y1="55" x2="45" y2="55"/>
  <line x1="10" y1="105" x2="45" y2="105"/>

  <circle cx="10" cy="10" r="5" pathLength="100" stroke-dasharray="25 100" transform="rotate(180 10 10)"/>
  <circle cx="45" cy="10" r="5" pathLength="100" stroke-dasharray="25 100" transform="rotate(270 45 10)"/>

  <circle cx="10" cy="50" r="5" pathLength="100" stroke-dasharray="25 100" transform="rotate(90 10 50)"/>
  <circle cx="10" cy="60" r="5" pathLength="100" stroke-dasharray="25 100" transform="rotate(180 10 60)"/>
  <circle cx="45" cy="60" r="5" pathLength="100" stroke-dasharray="25 100" transform="rotate(270 45 60)"/>
  <circle cx="45" cy="50" r="5" pathLength="100" stroke-dasharray="25 100" transform="rotate(0 45 50)"/>

  <circle cx="10" cy="100" r="5" pathLength="100" stroke-dasharray="25 100" transform="rotate(90 10 100)"/>
  <circle cx="45" cy="100" r="5" pathLength="100" stroke-dasharray="25 100" transform="rotate(0 45 100)"/>

<!-- 0 -->

  <line x1="60" y1="10" x2="60" y2="100"/>
  <line x1="105" y1="10" x2="105" y2="100"/>

  <line x1="65" y1="5" x2="100" y2="5"/>
  <line x1="65" y1="105" x2="100" y2="105"/>

  <circle cx="65" cy="10" r="5" pathLength="100" stroke-dasharray="25 100" transform="rotate(180 65 10)"/>
  <circle cx="100" cy="10" r="5" pathLength="100" stroke-dasharray="25 100" transform="rotate(270 100 10)"/>


  <circle cx="65" cy="100" r="5" pathLength="100" stroke-dasharray="25 100" transform="rotate(90 65 100)"/>
  <circle cx="100" cy="100" r="5" pathLength="100" stroke-dasharray="25 100" transform="rotate(0 100 100)"/>


<!-- 5 -->  <line x1="115" y1="10" x2="115" y2="50"/>  <line x1="160" y1="60" x2="160" y2="100"/> <line x1="120" y1="5" x2="155" y2="5"/> <line x1="120" y1="55" x2="155" y2="55"/> <line x1="115" y1="105" x2="155" y2="105"/>
 <circle cx="120" cy="10" r="5" pathLength="100" stroke-dasharray="25 100" transform="rotate(180 120 10)"/> <circle cx="120" cy="50" r="5" pathLength="100" stroke-dasharray="25 100" transform="rotate(90 120 50)"/> <circle cx="155" cy="60" r="5" pathLength="100" stroke-dasharray="25 100" transform="rotate(270 155 60)"/> <circle cx="155" cy="100" r="5" pathLength="100" stroke-dasharray="25 100" transform="rotate(0 155 100)"/>


<!-- DOT -->

<line x1="170" y1="105" x2="171" y2="105" stroke-width="3"/>



<!-- 2 -->  <line x1="180" y1="60" x2="180" y2="100"/> <line x1="225" y1="10" x2="225" y2="50"/>  <line x1="185" y1="5" x2="220" y2="5"/> <line x1="185" y1="55" x2="220" y2="55"/> <line x1="185" y1="105" x2="225" y2="105"/>  <circle cx="220" cy="10" r="5" pathLength="100" stroke-dasharray="25 100" transform="rotate(270 220 10)"/>  <circle cx="185" cy="60" r="5" pathLength="100" stroke-dasharray="25 100" transform="rotate(180 185 60)"/>  <circle cx="220" cy="50" r="5" pathLength="100" stroke-dasharray="25 100" transform="rotate(0 220 50)"/> <circle cx="185" cy="100" r="5" pathLength="100" stroke-dasharray="25 100" transform="rotate(90 185 100)"/>   <!-- 5 -->  <line x1="235" y1="10" x2="235" y2="50"/>   <line x1="280" y1="60" x2="280" y2="100"/> <line x1="240" y1="5" x2="275" y2="5"/> <line x1="240" y1="55" x2="275" y2="55"/> <line x1="235" y1="105" x2="275" y2="105"/> <circle cx="240" cy="10" r="5" pathLength="100" stroke-dasharray="25 100" transform="rotate(180 240 10)"/>  <circle cx="240" cy="50" r="5" pathLength="100" stroke-dasharray="25 100" transform="rotate(90 240 50)"/>  <circle cx="275" cy="60" r="5" pathLength="100" stroke-dasharray="25 100" transform="rotate(270 275 60)"/>   <circle cx="275" cy="100" r="5" pathLength="100" stroke-dasharray="25 100" transform="rotate(0 275 100)"/>

<!-- 9 -->  <line x1="290" y1="10" x2="290" y2="50"/>  <line x1="335" y1="10" x2="335" y2="100"/>  <line x1="295" y1="5" x2="330" y2="5"/> <line x1="295" y1="55" x2="330" y2="55"/> <line x1="290" y1="105" x2="330" y2="105"/> <circle cx="295" cy="10" r="5" pathLength="100" stroke-dasharray="25 100" transform="rotate(180 295 10)"/> <circle cx="330" cy="10" r="5" pathLength="100" stroke-dasharray="25 100" transform="rotate(270 330 10)"/> <circle cx="295" cy="50" r="5" pathLength="100" stroke-dasharray="25 100" transform="rotate(90 295 50)"/>   <circle cx="330" cy="100" r="5" pathLength="100" stroke-dasharray="25 100" transform="rotate(0 330 100)"/> 

<!-- DOT -->
<line x1="345" y1="105" x2="346" y2="105" stroke-width="3"/>


<!-- 5 -->  <line x1="355" y1="10" x2="355" y2="50"/>  <line x1="400" y1="60" x2="400" y2="100"/> <line x1="360" y1="5" x2="395" y2="5"/> <line x1="360" y1="55" x2="395" y2="55"/> <line x1="355" y1="105" x2="395" y2="105"/> <circle cx="360" cy="10" r="5" pathLength="100" stroke-dasharray="25 100" transform="rotate(180 360 10)"/>  <circle cx="360" cy="50" r="5" pathLength="100" stroke-dasharray="25 100" transform="rotate(90 360 50)"/>  <circle cx="395" cy="60" r="5" pathLength="100" stroke-dasharray="25 100" transform="rotate(270 395 60)"/>   <circle cx="395" cy="100" r="5" pathLength="100" stroke-dasharray="25 100" transform="rotate(0 395 100)"/>

<!-- 9 -->  <line x1="410" y1="10" x2="410" y2="50"/>  <line x1="455" y1="10" x2="455" y2="100"/>  <line x1="415" y1="5" x2="450" y2="5"/> <line x1="415" y1="55" x2="450" y2="55"/> <line x1="410" y1="105" x2="450" y2="105"/> <circle cx="415" cy="10" r="5" pathLength="100" stroke-dasharray="25 100" transform="rotate(180 415 10)"/> <circle cx="450" cy="10" r="5" pathLength="100" stroke-dasharray="25 100" transform="rotate(270 450 10)"/> <circle cx="415" cy="50" r="5" pathLength="100" stroke-dasharray="25 100" transform="rotate(90 415 50)"/>    <circle cx="450" cy="100" r="5" pathLength="100" stroke-dasharray="25 100" transform="rotate(0 450 100)"/> 

<!-- 1 -->   <line x1="475" y1="5" x2="475" y2="105"/>  

<!-- 7 -->  <line x1="535" y1="10" x2="535" y2="105"/>  <line x1="490" y1="5" x2="530" y2="5"/>  <circle cx="530" cy="10" r="5" pathLength="100" stroke-dasharray="25 100" transform="rotate(270 530 10)"/> 


</svg>

