<svg width="760" height="110" viewBox="0 0 760 110" stroke="#030112" stroke-width="4" fill="none" stroke-linecap="round" xmlns="http://www.w3.org/2000/svg">
	
<!-- 8 -->

  <line x1="5" y1="15" x2="5" y2="45"/>
  <line x1="5" y1="65" x2="5" y2="95"/>

  <line x1="50" y1="15" x2="50" y2="45"/>
  <line x1="50" y1="65" x2="50" y2="95"/>

  <line x1="15" y1="5" x2="40" y2="5"/>
  <line x1="15" y1="55" x2="40" y2="55"/>
  <line x1="15" y1="105" x2="40" y2="105"/>

  <circle cx="15" cy="15" r="10" pathLength="100" stroke-dasharray="25 100" transform="rotate(180 15 15)"/>
  <circle cx="40" cy="15" r="10" pathLength="100" stroke-dasharray="25 100" transform="rotate(270 40 15)"/>

  <circle cx="15" cy="45" r="10" pathLength="100" stroke-dasharray="25 100" transform="rotate(90 15 45)"/>
  <circle cx="15" cy="65" r="10" pathLength="100" stroke-dasharray="25 100" transform="rotate(180 15 65)"/>
  <circle cx="40" cy="65" r="10" pathLength="100" stroke-dasharray="25 100" transform="rotate(270 40 65)"/>
  <circle cx="40" cy="45" r="10" pathLength="100" stroke-dasharray="25 100" transform="rotate(0 40 45)"/>

  <circle cx="15" cy="95" r="10" pathLength="100" stroke-dasharray="25 100" transform="rotate(90 15 95)"/>
  <circle cx="40" cy="95" r="10" pathLength="100" stroke-dasharray="25 100" transform="rotate(0 40 95)"/>

<!-- 0 -->

  <line x1="80" y1="15" x2="80" y2="95"/>
  <line x1="125" y1="15" x2="125" y2="95"/>

  <line x1="90" y1="5" x2="115" y2="5"/>
  <line x1="90" y1="105" x2="115" y2="105"/>

  <circle cx="90" cy="15" r="10" pathLength="100" stroke-dasharray="25 100" transform="rotate(180 90 15)"/>
  <circle cx="115" cy="15" r="10" pathLength="100" stroke-dasharray="25 100" transform="rotate(270 115 15)"/>


  <circle cx="90" cy="95" r="10" pathLength="100" stroke-dasharray="25 100" transform="rotate(90 90 95)"/>
  <circle cx="115" cy="95" r="10" pathLength="100" stroke-dasharray="25 100" transform="rotate(0 115 95)"/>


<!-- 5 -->  <line x1="155" y1="15" x2="155" y2="45"/>  <line x1="200" y1="65" x2="200" y2="95"/> <line x1="165" y1="5" x2="195" y2="5"/> <line x1="165" y1="55" x2="190" y2="55"/> <line x1="155" y1="105" x2="190" y2="105"/>
 <circle cx="165" cy="15" r="10" pathLength="100" stroke-dasharray="25 100" transform="rotate(180 165 15)"/> <circle cx="165" cy="45" r="10" pathLength="100" stroke-dasharray="25 100" transform="rotate(90 165 45)"/> <circle cx="190" cy="65" r="10" pathLength="100" stroke-dasharray="25 100" transform="rotate(270 190 65)"/> <circle cx="190" cy="95" r="10" pathLength="100" stroke-dasharray="25 100" transform="rotate(0 190 100)"/>


<!-- DOT -->

<line x1="230" y1="105" x2="230" y2="105" stroke-width="5"/>



<!-- 2 -->  
	<line x1="260" y1="65" x2="260" y2="95"/>
	<line x1="305" y1="15" x2="305" y2="45"/>  
	<line x1="265" y1="5" x2="295" y2="5"/>
	<line x1="270" y1="55" x2="295" y2="55"/>
	<line x1="270" y1="105" x2="305" y2="105"/>  
	<circle cx="295" cy="15" r="10" pathLength="100" stroke-dasharray="25 100" transform="rotate(270 295 15)"/>  
	<circle cx="270" cy="65" r="10" pathLength="100" stroke-dasharray="25 100" transform="rotate(180 270 65)"/>  
	<circle cx="295" cy="45" r="10" pathLength="100" stroke-dasharray="25 100" transform="rotate(0 295 45)"/> 
	<circle cx="270" cy="95" r="10" pathLength="100" stroke-dasharray="25 100" transform="rotate(90 270 95)"/>   
	
<!-- 5 -->  <line x1="335" y1="15" x2="335" y2="45"/>   <line x1="380" y1="65" x2="380" y2="95"/> <line x1="345" y1="5" x2="375" y2="5"/> <line x1="345" y1="55" x2="370" y2="55"/> <line x1="335" y1="105" x2="370" y2="105"/>
 <circle cx="345" cy="15" r="10" pathLength="100" stroke-dasharray="25 100" transform="rotate(180 345 15)"/>  <circle cx="345" cy="45" r="10" pathLength="100" stroke-dasharray="25 100" transform="rotate(90 345 45)"/>  <circle cx="370" cy="65" r="10" pathLength="100" stroke-dasharray="25 100" transform="rotate(270 370 65)"/>   <circle cx="370" cy="95" r="10" pathLength="100" stroke-dasharray="25 100" transform="rotate(0 370 95)"/>

<!-- 9 -->  <line x1="410" y1="15" x2="410" y2="45"/>  <line x1="455" y1="15" x2="455" y2="95"/>  <line x1="420" y1="5" x2="445" y2="5"/> <line x1="420" y1="55" x2="445" y2="55"/> <line x1="410" y1="105" x2="445" y2="105"/>

<circle cx="445" cy="45" r="10" pathLength="100" stroke-dasharray="25 100" transform="rotate(0 445 45)"/> <circle cx="420" cy="15" r="10" pathLength="100" stroke-dasharray="25 100" transform="rotate(180 420 15)"/> <circle cx="445" cy="15" r="10" pathLength="100" stroke-dasharray="25 100" transform="rotate(270 445 15)"/> <circle cx="420" cy="45" r="10" pathLength="100" stroke-dasharray="25 100" transform="rotate(90 420 45)"/> <circle cx="445" cy="95" r="10" pathLength="100" stroke-dasharray="25 100" transform="rotate(0 445 95)"/> 

<!-- DOT -->
<line x1="485" y1="105" x2="485" y2="105" stroke-width="5"/>


<!-- 5 -->  <line x1="515" y1="15" x2="515" y2="45"/>  <line x1="560" y1="65" x2="560" y2="95"/> <line x1="525" y1="5" x2="555" y2="5"/> <line x1="525" y1="55" x2="550" y2="55"/> <line x1="515" y1="105" x2="550" y2="105"/>
 <circle cx="525" cy="15" r="10" pathLength="100" stroke-dasharray="25 100" transform="rotate(180 525 15)"/>  <circle cx="525" cy="45" r="10" pathLength="100" stroke-dasharray="25 100" transform="rotate(90 525 45)"/>  <circle cx="550" cy="65" r="10" pathLength="100" stroke-dasharray="25 100" transform="rotate(270 550 65)"/>   <circle cx="550" cy="95" r="10" pathLength="100" stroke-dasharray="25 100" transform="rotate(0 555 100)"/>

<!-- 9 -->  <line x1="590" y1="15" x2="590" y2="45"/>  <line x1="635" y1="15" x2="635" y2="95"/>  <line x1="600" y1="5" x2="625" y2="5"/> <line x1="600" y1="55" x2="625" y2="55"/> <line x1="590" y1="105" x2="625" y2="105"/>

<circle cx="625" cy="45" r="10" pathLength="100" stroke-dasharray="25 100" transform="rotate(0 625 45)"/> <circle cx="600" cy="15" r="10" pathLength="100" stroke-dasharray="25 100" transform="rotate(180 600 15)"/> <circle cx="630" cy="10" r="10" pathLength="100" stroke-dasharray="25 100" transform="rotate(270 630 15)"/> <circle cx="605" cy="50" r="10" pathLength="100" stroke-dasharray="25 100" transform="rotate(90 605 45)"/> <circle cx="625" cy="95" r="10" pathLength="100" stroke-dasharray="25 100" transform="rotate(0 625 95)"/> 

<!-- 1 -->   <line x1="675" y1="5" x2="675" y2="105"/>  

<!-- 7 -->  <line x1="755" y1="15" x2="755" y2="105"/>  <line x1="710" y1="5" x2="745" y2="5"/>  <circle cx="745" cy="15" r="10" pathLength="100" stroke-dasharray="25 100" transform="rotate(270 745 15)"/> 


</svg>
